<?xml version="1.0" encoding="UTF-8"?>
<svg id="Calque_1" data-name="Calque 1" xmlns="http://www.w3.org/2000/svg" viewBox="0 0 1080 1080">
  <defs>
    <style>
      .cls-1 {
        fill: #5b4be0;
      }

      .cls-1, .cls-2 {
        stroke-width: 0px;
      }

      .cls-2 {
        fill: #858af4;
      }
    </style>
  </defs>
  <path class="cls-2" d="M808.07,573.76l136.49-.23c-17.4,213.43-191.89,381.21-404.62,381.21s-386.83-167.47-404.55-380.67l125.56-2.57c18.81-.47,21.15-6.09,21.15-6.09,15.53-44.17,19.74-17.87,19.74-17.87,8.43,50.72,40.42,74.21,40.42,74.21,27.7,28.25,55.88,5.7,55.88,5.7,20.68-25.36,57.36-174.34,57.36-174.34,10.77-119.79,21.15-54,21.15-54,0,0,31.92,342.51,45.5,436,13.66,93.49,57.36-3.82,57.36-3.82l20.68-77.49,40.11-180.97c7.1-53.07,15.06-23.02,15.06-23.02,2.11,14.59,33.63,79.68,33.63,79.68,26.53,45.11,59.62-35.27,59.62-35.27l20.21-43.47c8.66,22.08,39.25,23.02,39.25,23.02Z"/>
  <path class="cls-2" d="M252.37,528.66h-118.31c4.92-225.53,184.71-406.81,405.87-406.81s401.03,181.28,405.95,406.81h-133.37c-23.49-6.4-26.06-31.21-26.06-31.21-14.59-33.56-37.38,7.73-37.38,7.73l-28.17,55.02c-10.38,26.06-18.1.23-18.1.23l-24.74-68.98c-32.85-107.3-63.91,0-63.91,0l-54.47,222.88-50.57-460.19s-7.02-30.59-33.4-29.11c-26.3,1.4-29.11,27.7-29.11,27.7l-11.71,46.51s-41.59,195.41-55.25,245.19c-13.58,49.79-27.7,15.3-27.7,15.3,0-.16-1.4-3.75-23.49-49.55-25.36-52.68-39.41-16.93-47.92,0-8.43,16.86-28.17,18.49-28.17,18.49Z"/>
  <path class="cls-1" d="M540,21.35C260.82,21.35,34.51,253.52,34.51,540s226.32,518.65,505.49,518.65,505.49-232.25,505.49-518.65S819.18,21.35,540,21.35ZM539.92,970.84c-234.11,0-423.88-193.61-423.88-432.53S305.81,105.7,539.92,105.7s423.97,193.69,423.97,432.61-189.85,432.53-423.97,432.53Z"/>
  <circle class="cls-2" cx="116.03" cy="109.63" r="36.41"/>
  <circle class="cls-2" cx="976.77" cy="109.63" r="36.41"/>
  <circle class="cls-2" cx="976.77" cy="970.37" r="36.41"/>
  <circle class="cls-2" cx="116.03" cy="970.37" r="36.41"/>
</svg>